/* XPM */
static char * redbrick_xpm[] = {
"16 16 2 1",
"R c #C00000",
"B c #000000",
"BBBBBBBBBBBBBBBB",
"BRRRRRRRRRRRRRRB",
"BRRRRRRRRRRRRRRB",
"RRRRRRRRBBBBBBBB",
"BRRRRRRRRRRRRRRB",
"BRRRRRRRRRRRRRRB",
"BRRRRRRRRRRRRRRB",
"RRRRRRRRRRRRRRRB",
"BRRRRRRRRRRRRRRB",
"BRRRRRRRRRRRRRRB",
"RRRRRRRRRRRRRRRB",
"BRRRRRRRRRRRRRRB",
"RRRRRRRRRRRRRRRB",
"RBBBBBBBBBBBBBBB",
"BRRRRRRRRRRRRRRB",
"BBBBBBBBBBBBBBBB"
};
