/* XPM */
static char *_1f43284bddd43788a0f68a2a75a8dd86hh32wJkGtHLhOVB[] = {
/* columns rows colors chars-per-pixel */
"64 64 3 1 ",
"  c gray23",
". c gray28",
"X c gray62",
/* pixels */
"                                                                ",
" XXXXXXXXXXXXXXXXXXXXXXXX XXXXXXXXXXXXXXXXXXXXXXXXXXXXXXXXXXXXX ",
" XXXXXXXXXXXXXXXXXXXXXXXX XXXXXXXXXXXXXXXXXXXXXXXXXXXXXXXXXXXXX ",
" XXXXXXXXXXXXXXXXXXXXXXXX XXXXXXXXXXXXXXXXXXXXXXXXXXXXXXXXXXXXX ",
" XXXXXXXXXXXXXXXXXXXXXXXX XXXXXXXXXXXXXXXXXXXXXXXXXXX....XXXXXX ",
" XXXXX.XXXXXXXXXXXXXXXXXX XXXXXXXXXXXXXXXXXXXXXXXXXX.XXXXXXXXXX ",
" XXXXX..XXXXXXXXXXXXXXXXX XXXXXXXXXXXXXXXXXXXXXXXXXX.XXXXXXXXXX ",
" XX......XXXXXXXXXXXXXXXX XXXXXXXXXXXXXXXXXXXXXXXXXXX...XXXXXXX ",
" XXXXX..XXXXXXXXXXXXXXXXX XXXXXXXXXXXXXXXXXXXXXXXXXXXXXX.XXXXXX ",
" XXXXX.XXXXXXXXXXXXXXXXXX XXXXXXXXXXXXXXXXXXXXXXXXXXXXXX.XXXXXX ",
" XXXXXXXXXXXXXXXXXXXXXXXX XXXXXXXXXXXXXXXXXXXXXXXXXX....XXXXXXX ",
" XXXXXXXXXXXXXXXXXXXXXXXX XXXXXXXXXXXXXXXXXXXXXXXXXXXXXXXXXXXXX ",
" XXXXXXXXXXXXXXXXXXXXXXXX XXXXXXXXXXXXXXXXXXXXXXXXXXXXXXXXXXXXX ",
" XXXXXXXXXXXXXXXXXXXXXXXX XXXXXXXXXXXXXXXXXXXXXXXXXXXXXXXXXXXX. ",
" XXXXXXXXXXXXXXXXXXXXXXXX XXXXXXXXXXXXXXXXXXXXXXXXXXXXXXXXXX... ",
"                                                                ",
" XXXXXXXXXXXXXXXXXX ...XXXXXXXXXXXXXXXXXXXXX XXXXXXXXXXXXXXX... ",
" XXXXXXXXXXXXXXXXXX .XXXXXXXXXXXXXXXXXXXXXXX XXXXXXXXXXXXXXXXX. ",
" XXXXXXXXXXXXXXXXXX .XXXXXXXXXXXXXXXXXXXXXXX XXXXXXXXXXXXXXXXXX ",
" XXXXXXXXXXXXXXXXXX XXXXXXXXXXXXXXXXXXXXXXXX XXXXXXXXXXXXXXXXXX ",
" .XXXXXXXXXXXXXXXXX XXXXXXXXXXXXXXXXXXXXXXXX XXXXXXXXXXXXXXXXXX ",
" X..XXXXXXXXXXXXXXX XXXXXXXXXXXXXXXXXXXXXXXX XXXXXXXXXXXXXXXXXX ",
" XXX.XXXXXXXXXXXXXX XXXXXXXXXXXXXXXXXXXXXXXX XXXXXXXXXXXXXXXXXX ",
" XXXXXXXXXXXXXXXXXX XXXXXXXXXXXXXXXXXXXXXXXX XXXXXXXXXXXXXXXXXX ",
" XXXXXXXXXXXXXXXXXX XXXXXXXXXXXXXXXXXXXXXXXX XXXXXXXXXXXXXXXXXX ",
" XXXXXXXXXXXXXXXXXX XXXXXXXXXXXXXXXXXXXXXXXX XXXXXXXXXXXXXXXXXX ",
" XXXXXXXXXXXXXXXXXX XXXXXXXXXXXXXXXXXXXXXXXX XXXXXXXXXXXXXXXXXX ",
" XXXXXXXXXXXXXXXXXX XXXXXXXXXXXX.XXXXXXXXXXX XXXXXXXXXXXXXXXXXX ",
" XXXXXXXXXXXXXXXXXX XXXXXXXXXXXX..XXXXXXXXXX XXXXXXXXXXXXXXXXXX ",
" XXXXXXXXXXXXXXXXXX  XXXXXXXXXX..XXXXXXXXXXX XXXXXXXXXXXXXXXXXX ",
" XXXXXXXXXXXXXXXXXXX XXXXXXXXXX.XXXXXXXXXXXX XXXXXXXXXXXXXXXXXX ",
"                                                                ",
" XXXXXXXXXX XXXXXXXXXXXXXXXXXXXXXXXXXXX XXXXXXXXXXXXXXXXXXXXXX  ",
" XXXXXXXXXX  XXXXXXXXXXXXXXXXXXXXXXXXXX XXXXXXXXXXXXXXXXXXXXXX  ",
" XXXXXXXXXXX XXXXXXXXXXXXXXXXXXXXXXXXXX XXXXXXXXXXXXXXXXXXXXXX  ",
" XXXXXXXXXXX XXXXXXXXXXXXXXXXXXXXXXXXXX XXXXXXXXXXXXXXXXXXXXXX  ",
" XXXXXXXXXXX XXXXXXXXXXXXXXXXXXXXXXXXXX XXXXXXXXXXXXXXXXXXXXXX  ",
" XXXXXXXXXXX XXXXXXXXXXXXXXXXXXXXXXXXXX XXXXXXXXXXXXXXXXXXXXXX  ",
" XXXXXXXXXXX XXXXXXXXXXXXXXXXXXXXXXXXXX XXXXXXXXXXXXXXXXXXXXXX  ",
" XXXXXXXXXXX XXXXXXXXXXXXXXXXXXXXXXXXXX XXXXXXXXXXXXXXXXXXXXXX  ",
" XXXXXXXXXXX XXXXXXXXXXXXXXXXXXXXXXXXXX XXXXXXXXXXXXXXXXXXXXXX  ",
" XXXXXXXXXXX XXXXXXXXXXXXXXXXXXXXXXXXXX XXXXXXXXXXXXXXXXXXXXXX  ",
" XXXXXXXXXXX XXXXXXXXXXXXXXXXXXXXXXXXXX XXXXXXXXXXXXXXXXXXXXXX  ",
" XXXXXXXXXXX XXXXXXXXXXXXXXXXXXXXXXXXXX XXXXXXXXXXXXXXXXXX...X  ",
" XXXXXXXXXXX XXXXXXXXXXXXXXXXXXXXXXXXXX XXXXXXXXXXXXXXXXXX.XXX  ",
" XXXXXXXXXXX XXXXXXXXXXXXXXXXXXXXXXXXXX XXXXXXXXXXXXXXXXX..XXX  ",
" XXXXXXXXXXX XXXXXXXXXXXXXXXXXXXXXXXXXX XXXXXXXXXXXXXXXX.XXXXX  ",
"                                                                ",
" ..XXXXXXXXXXXXXXXXXXX XXXXXXXXXXXXXXXXXXXXXX  XXXXXXXXXXXXXXXX ",
" ..XXXXXXXXXXXXXXXXXXX XXXXXXXXXXXXXXXXXXXXXX  XXXXXXXXXXXXXXXX ",
" .XXXXXXXXXXXXXXXXXXXX XXXXXXXXXXXXXXXXXXXXXXX XXXXXXXXXXXXXXXX ",
" XXXXXXXXXXXXXXXXXXXXX XXXXXXXXXXXXXXXXXXXXXXX XXXXXXXXXXXXXXXX ",
" XXXXXXXXXXXXXXXXXXXXX XXXXXXXXXXXXXXXXXXXXXXX XXXXXXXXXXXXXXXX ",
" XXXXXXXXXXXXXXXXXXXXX XXXXXXXXXXXXXXXXXXXXXXX XXXXXXXXXXXXXXXX ",
" XXXXXXXXXXXXXXXXXXXXX XXXXXXXXXXXXXXXXXXXXXXX XXXXXXXXXXXXXXXX ",
" XXXXXXXXXXXXXXXXXXXXX XXXXXXXXXXXXXXXXXXXXXXX XXXXXXXXXXXXXXXX ",
" XXXXXXXXXXXXXXXXXXXXX XXXXXXXXXXXXXXXXXXXXXXX XXXXXXXXXXXXXXXX ",
" XXXXXXXXXXXXXXXXXXXXX XXXXXXXXXXXXXXXXXXXXXXX XXXXXXXXXXXXXXXX ",
" XXXXXXXXXXXXXXXXXXXXX XXXXXXXXXXXXXXXXXXXXXXX XXXXXXXXXXXXXXXX ",
" XXXXXXXXXXXXXXXXXXXXX XXXXXXXXXXXXXXXXXXXXXXX XXXXXXXXXXXXXXXX ",
" XXX.XXXXXXXXXXXXXXXXX .XXXXXXXXXXXXXXXXXXXXXX XXXXXXXXXXXXXXXX ",
" X..XXXXXXXXXXXXXXXXXX .XXXXXXXXXXXXXXXXXXXXXX XXXXXXXXXXXXXXXX ",
" .XXXXXXXXXXXXXXXXXXXX ..XXXXXXXXXXXXXXXXXXXXX XXXXXXXXXXXXXXXX ",
"                                                                "
};
