/* XPM */
static char * test_wall_xpm[] = {
"10 10 4 1",
"A c #0000FF",
"B c #000000",
"C c #FF0000",
"D c #00FF00",
"AAAAAAAAAA",
"ABABABABAB",
"ABABABABAB",
"ABABABABAB",
"ABABABABAB",
"ABABABABAB",
"ABABABABAB",
"ABABABABAB",
"CCCCCCCCCC",
"DDDDDDDDDD"
};
